<svg width="163" height="32" viewBox="0 0 163 32" fill="none" xmlns="http://www.w3.org/2000/svg">
<g clip-path="url(#clip0_493_30)">
<path d="M159.36 13.4603L156.36 21.1003H156.27L153.14 13.4603H150.31L155 24.1403L152.32 30.0803H155.07L162.3 13.4603H159.36ZM138.16 7.12026H135.54V24.7403H138.16V7.12026ZM128.3 7.12026H122V24.7403H124.64V18.0703H128.31C129.05 18.0956 129.788 17.9737 130.48 17.7116C131.172 17.4495 131.806 17.0525 132.344 16.5436C132.881 16.0347 133.313 15.4241 133.612 14.7472C133.912 14.0702 134.075 13.3405 134.09 12.6003C134.075 11.8587 133.912 11.1277 133.612 10.4495C133.311 9.77138 132.879 9.15964 132.341 8.64981C131.802 8.13999 131.167 7.74225 130.474 7.47968C129.78 7.2171 129.041 7.09493 128.3 7.12026ZM128.37 15.6103H124.64V9.61026H128.38C129.176 9.61026 129.939 9.92633 130.501 10.4889C131.064 11.0515 131.38 11.8146 131.38 12.6103C131.38 13.4059 131.064 14.169 130.501 14.7316C129.939 15.2942 129.176 15.6103 128.38 15.6103H128.37ZM144.62 13.0803C143.66 13.0252 142.705 13.2513 141.872 13.7309C141.039 14.2105 140.364 14.9227 139.93 15.7803L142.27 16.7803C142.502 16.3563 142.852 16.0093 143.279 15.7819C143.705 15.5545 144.189 15.4566 144.67 15.5003C145 15.4672 145.334 15.4997 145.652 15.596C145.97 15.6923 146.265 15.8505 146.522 16.0614C146.778 16.2724 146.991 16.5319 147.147 16.8252C147.302 17.1185 147.399 17.4396 147.43 17.7703V17.9503C146.592 17.4968 145.653 17.2596 144.7 17.2603C142.19 17.2603 139.63 18.6403 139.63 21.2603C139.63 23.6203 141.68 25.1403 144 25.1403C144.66 25.1822 145.319 25.0444 145.908 24.7415C146.496 24.4386 146.991 23.982 147.34 23.4203H147.44V24.7803H150V18.0003C150 14.8703 147.66 13.1303 144.64 13.1303L144.62 13.0803ZM144.31 22.7403C143.45 22.7403 142.25 22.3003 142.25 21.2403C142.25 19.8803 143.74 19.3603 145.04 19.3603C145.878 19.3378 146.708 19.5416 147.44 19.9503C147.343 20.715 146.973 21.4189 146.398 21.9317C145.822 22.4446 145.081 22.7318 144.31 22.7403ZM49.49 25.1203C47.0016 25.1285 44.6102 24.1559 42.8339 22.4133C41.0576 20.6707 40.0394 18.2983 40 15.8103C40.0394 13.3222 41.0576 10.9499 42.8339 9.20724C44.6102 7.46462 47.0016 6.49205 49.49 6.50026C50.6757 6.48051 51.8534 6.69766 52.9541 7.13897C54.0548 7.58028 55.0563 8.23687 55.9 9.07026L54.09 10.8603C52.8623 9.65732 51.2088 8.98869 49.49 9.00026C47.6945 9.00026 45.9725 9.71352 44.7029 10.9831C43.4333 12.2528 42.72 13.9747 42.72 15.7703C42.72 17.5658 43.4333 19.2878 44.7029 20.5574C45.9725 21.827 47.6945 22.5403 49.49 22.5403C50.3638 22.5761 51.2354 22.4282 52.0484 22.1061C52.8615 21.784 53.5979 21.2948 54.21 20.6703C55.0239 19.7928 55.5142 18.664 55.6 17.4703H49.49V15.0003H58.09C58.1838 15.5249 58.2273 16.0573 58.22 16.5903C58.3064 18.8039 57.5117 20.9615 56.01 22.5903C55.1622 23.4467 54.1433 24.1147 53.0198 24.5506C51.8964 24.9866 50.6936 25.1807 49.49 25.1203ZM71.52 19.1203C71.5528 19.9202 71.4236 20.7184 71.1402 21.4671C70.8567 22.2158 70.4249 22.8995 69.8705 23.4771C69.3161 24.0547 68.6508 24.5142 67.9143 24.8282C67.1779 25.1421 66.3856 25.3039 65.585 25.3039C64.7844 25.3039 63.9921 25.1421 63.2557 24.8282C62.5192 24.5142 61.8539 24.0547 61.2995 23.4771C60.7451 22.8995 60.3133 22.2158 60.0298 21.4671C59.7463 20.7184 59.6172 19.9202 59.65 19.1203C59.6172 18.3204 59.7463 17.5221 60.0298 16.7734C60.3133 16.0247 60.7451 15.341 61.2995 14.7634C61.8539 14.1858 62.5192 13.7263 63.2557 13.4124C63.9921 13.0984 64.7844 12.9366 65.585 12.9366C66.3856 12.9366 67.1779 13.0984 67.9143 13.4124C68.6508 13.7263 69.3161 14.1858 69.8705 14.7634C70.4249 15.341 70.8567 16.0247 71.1402 16.7734C71.4236 17.5221 71.5528 18.3204 71.52 19.1203ZM68.92 19.1203C68.9641 18.6557 68.9107 18.1871 68.7631 17.7444C68.6156 17.3017 68.3772 16.8947 68.0632 16.5495C67.7493 16.2043 67.3666 15.9285 66.9399 15.7398C66.5131 15.5511 66.0516 15.4536 65.585 15.4536C65.1184 15.4536 64.6569 15.5511 64.2301 15.7398C63.8034 15.9285 63.4207 16.2043 63.1068 16.5495C62.7928 16.8947 62.5544 17.3017 62.4069 17.7444C62.2593 18.1871 62.2059 18.6557 62.25 19.1203C62.2059 19.5848 62.2593 20.0534 62.4069 20.4961C62.5544 20.9388 62.7928 21.3458 63.1068 21.691C63.4207 22.0362 63.8034 22.312 64.2301 22.5007C64.6569 22.6894 65.1184 22.7869 65.585 22.7869C66.0516 22.7869 66.5131 22.6894 66.9399 22.5007C67.3666 22.312 67.7493 22.0362 68.0632 21.691C68.3772 21.3458 68.6156 20.9388 68.7631 20.4961C68.9107 20.0534 68.9641 19.5848 68.92 19.1203ZM84.82 19.1203C84.82 20.693 84.1952 22.2013 83.0831 23.3134C81.9711 24.4255 80.4627 25.0503 78.89 25.0503C77.3173 25.0503 75.8089 24.4255 74.6969 23.3134C73.5848 22.2013 72.96 20.693 72.96 19.1203C72.96 17.5475 73.5848 16.0392 74.6969 14.9271C75.8089 13.815 77.3173 13.1903 78.89 13.1903C80.4627 13.1903 81.9711 13.815 83.0831 14.9271C84.1952 16.0392 84.82 17.5475 84.82 19.1203ZM82.23 19.1203C82.2741 18.6557 82.2207 18.1871 82.0731 17.7444C81.9256 17.3017 81.6872 16.8947 81.3732 16.5495C81.0593 16.2043 80.6766 15.9285 80.2499 15.7398C79.8231 15.5511 79.3616 15.4536 78.895 15.4536C78.4284 15.4536 77.9669 15.5511 77.5401 15.7398C77.1134 15.9285 76.7307 16.2043 76.4168 16.5495C76.1028 16.8947 75.8644 17.3017 75.7169 17.7444C75.5693 18.1871 75.5159 18.6557 75.56 19.1203C75.5159 19.5848 75.5693 20.0534 75.7169 20.4961C75.8644 20.9388 76.1028 21.3458 76.4168 21.691C76.7307 22.0362 77.1134 22.312 77.5401 22.5007C77.9669 22.6894 78.4284 22.7869 78.895 22.7869C79.3616 22.7869 79.8231 22.6894 80.2499 22.5007C80.6766 22.312 81.0593 22.0362 81.3732 21.691C81.6872 21.3458 81.9256 20.9388 82.0731 20.4961C82.2207 20.0534 82.2741 19.5848 82.23 19.1203ZM97.8 13.4903V24.2603C97.8 28.6803 95.17 30.5003 92.07 30.5003C90.9337 30.5098 89.82 30.1825 88.8696 29.5595C87.9192 28.9366 87.1746 28.046 86.73 27.0003L89 26.0003C89.2355 26.6108 89.6456 27.1384 90.1791 27.5172C90.7127 27.896 91.346 28.1092 92 28.1303C94 28.1303 95.22 26.9003 95.22 24.6103V23.7503H95.12C94.7278 24.1879 94.2464 24.5366 93.7083 24.7729C93.1701 25.0092 92.5877 25.1277 92 25.1203C90.4087 25.1203 88.8826 24.4881 87.7574 23.3629C86.6321 22.2377 86 20.7116 86 19.1203C86 17.529 86.6321 16.0028 87.7574 14.8776C88.8826 13.7524 90.4087 13.1203 92 13.1203C92.5916 13.1072 93.1791 13.2199 93.7239 13.4509C94.2686 13.6819 94.7581 14.026 95.16 14.4603H95.26V13.4603H97.8V13.4903ZM95.47 19.1503C95.5067 18.6977 95.4522 18.2423 95.3095 17.8113C95.1669 17.3802 94.9392 16.9821 94.6398 16.6408C94.3404 16.2994 93.9754 16.0216 93.5666 15.824C93.1578 15.6264 92.7135 15.5129 92.26 15.4903C91.7976 15.5056 91.343 15.6129 90.9226 15.806C90.5022 15.9991 90.1245 16.2741 89.8117 16.6149C89.4988 16.9557 89.2571 17.3555 89.1005 17.7908C88.944 18.2261 88.8758 18.6883 88.9 19.1503C88.8786 19.6091 88.949 20.0676 89.1071 20.4989C89.2652 20.9302 89.5079 21.3256 89.8208 21.6618C90.1338 21.9981 90.5108 22.2685 90.9296 22.4571C91.3485 22.6457 91.8008 22.7488 92.26 22.7603C92.7108 22.7428 93.1534 22.6345 93.5613 22.4418C93.9692 22.249 94.334 21.9759 94.6337 21.6388C94.9335 21.3017 95.1621 20.9075 95.3058 20.4799C95.4495 20.0522 95.5054 19.6 95.47 19.1503ZM102.43 7.14026V24.7503H99.79V7.14026H102.43ZM112.83 21.1003L114.89 22.4603C114.34 23.281 113.596 23.9533 112.724 24.4173C111.851 24.8814 110.878 25.1228 109.89 25.1203C109.104 25.1315 108.324 24.9832 107.597 24.6842C106.87 24.3852 106.211 23.9419 105.661 23.381C105.11 22.82 104.679 22.1532 104.394 21.4209C104.108 20.6885 103.974 19.9059 104 19.1203C103.883 17.7697 104.267 16.4233 105.079 15.3377C105.891 14.2521 107.074 13.5032 108.402 13.2337C109.731 12.9643 111.112 13.1932 112.283 13.8768C113.453 14.5603 114.332 15.6508 114.75 16.9403L115.02 17.6303L107.02 20.9403C107.269 21.5006 107.681 21.9734 108.201 22.2978C108.722 22.6222 109.327 22.7832 109.94 22.7603C110.523 22.7511 111.094 22.594 111.599 22.3036C112.105 22.0132 112.528 21.5992 112.83 21.1003ZM106.52 18.9403L111.9 16.7203C111.692 16.3127 111.369 15.9752 110.97 15.7494C110.572 15.5237 110.117 15.4197 109.66 15.4503C109.223 15.4694 108.795 15.5753 108.4 15.7618C108.004 15.9483 107.65 16.2117 107.358 16.5366C107.066 16.8615 106.841 17.2414 106.697 17.6541C106.553 18.0668 106.493 18.504 106.52 18.9403Z" fill="white"/>
<path d="M13.54 15.2803L0.119995 29.3403C0.270684 29.8744 0.541493 30.3669 0.911721 30.7803C1.28195 31.1937 1.74179 31.5169 2.2561 31.7254C2.77041 31.9338 3.32556 32.0219 3.87913 31.9829C4.43269 31.9438 4.97 31.7788 5.45 31.5003L20.55 22.9003L13.54 15.2803Z" fill="#EA4335"/>
<path d="M27.11 12.8904L20.58 9.15039L13.23 15.6004L20.61 22.8804L27.09 19.1804C27.6641 18.8798 28.1449 18.4278 28.4804 17.8734C28.816 17.3191 28.9933 16.6834 28.9933 16.0354C28.9933 15.3874 28.816 14.7517 28.4804 14.1973C28.1449 13.6429 27.6641 13.191 27.09 12.8904H27.11Z" fill="#FBBC04"/>
<path d="M0.119978 2.66016C0.0388573 2.96004 -0.00150548 3.26949 -2.15634e-05 3.58016V28.4202C0.000789817 28.7307 0.0411137 29.0398 0.119978 29.3402L14 15.6402L0.119978 2.66016Z" fill="#4285F4"/>
<path d="M13.64 16L20.58 9.15001L5.5 0.510007C4.93268 0.177748 4.28744 0.00177385 3.63 7.15214e-06C2.83598 -0.00156636 2.06322 0.256535 1.42952 0.734967C0.795826 1.2134 0.33595 1.88592 0.119995 2.65001L13.64 16Z" fill="#34A853"/>
</g>
<defs>
<clipPath id="clip0_493_30">
<rect width="162.28" height="32" fill="white"/>
</clipPath>
</defs>
</svg>
